<svg xmlns="http://www.w3.org/2000/svg" viewBox="0 0 333333 276444" shape-rendering="geometricPrecision" text-rendering="geometricPrecision" image-rendering="optimizeQuality" fill-rule="evenodd" clip-rule="evenodd"><path d="M9055 2h315224c4982 0 9055 4077 9055 9053v208830c0 4983-4073 9055-9055 9055H9055c-4976 0-9055-4072-9055-9055V9055C0 4079 4079 0 9055 0v2zm25037 31674h26646v6933H34092v-6933zm39339 73587H34092v-6960h39339v6960zm53528 15H81429v-6990h45530v6990zm78284-5h-70598v-6980h70598v6980zM101056 76140h138733v6858H101056v-6858zm-32631-37h25109v6933H68425v-6933zm-34333 0h26646v6933H34092v-6933zm60237-15299H34092v-6896h60237v6896zm32631 19h-25109v-6933h25109v6933zm78284 23h-70598v-6980h70598v6980zM101057 31695h60237v6896h-60237v-6896zm-32631-19h25109v6933H68426v-6933zm178966 136716l-24685-13835v-7924l24685-13834v9117l-17191 8580 17191 8832v9063zm4576 6173l8912-48595h5176l-8974 48595h-5114zm17893-6107v-9074l17232-8690-17232-8777v-8986l24685 13954v7815l-24685 13757zm-144285 71002h82191c220 14228 6065 26950 21943 36984H103632c12691-9220 21992-20406 21943-36984h2zm41093-43043c6421 0 11637 5211 11637 11640 0 6422-5217 11632-11637 11632-6423 0-11640-5211-11640-11632 0-6429 5217-11640 11640-11640zM27254 17067h278829c4409 0 8016 3604 8016 8010v156041c0 4406-3612 8009-8016 8009H27254c-4406 0-8010-3604-8010-8009V25075c0-4409 3604-8010 8010-8010v2z"/></svg>