<svg xmlns="http://www.w3.org/2000/svg" viewBox="0 0 1942 3333" shape-rendering="geometricPrecision" text-rendering="geometricPrecision" image-rendering="optimizeQuality" fill-rule="evenodd" clip-rule="evenodd"><path d="M346 0h1251c95 0 182 39 244 101 63 63 101 149 101 244v2642c0 95-39 182-101 244-63 63-149 101-244 101H346c-95 0-182-39-244-101-63-63-101-149-101-244V345c0-95 39-182 101-244C165 38 251 0 346 0zm625 2908c78 0 142 63 142 142 0 78-63 142-142 142-78 0-142-63-142-142 0-78 63-142 142-142zM99 2800h1744V535H99v2265z"/></svg>