<svg xmlns="http://www.w3.org/2000/svg" viewBox="0 0 312711 333334" shape-rendering="geometricPrecision" text-rendering="geometricPrecision" image-rendering="optimizeQuality" fill-rule="evenodd" clip-rule="evenodd"><path d="M68837 154613h175991v-53325h-56043c-5874 0-14081-3184-17956-7059-3875-3874-6250-10868-6250-16743V20725H22099c-500 0-875 250-1125 500-375 250-500 625-500 1125v288760c0 375 250 875 500 1125 250 375 750 500 1125 500h221103c500 0 470-250 720-500 375-250 905-750 905-1125v-30272H68836c-11242 0-20498-9224-20498-20498v-85227c0-11274 9224-20499 20498-20499zm71760 28344h21271v37256c0 7825-687 13782-2076 17870-1389 4072-4184 7537-8384 10380-4200 2826-9582 4248-16129 4248-6931 0-12296-942-16097-2810-3817-1869-6755-4599-8831-8208-2076-3593-3306-8049-3673-13350l20217-2747c32 3002 303 5238 798 6691 495 1469 1341 2635 2539 3545 815 591 1964 878 3465 878 2380 0 4120-878 5238-2635 1102-1757 1661-4727 1661-8895v-42223zm31889 45911l20121-1261c431 3258 1326 5749 2667 7442 2188 2763 5302 4152 9358 4152 3019 0 5350-703 6979-2124 1645-1421 2459-3066 2459-4934 0-1773-767-3370-2315-4775-1549-1406-5158-2715-10827-3976-9294-2076-15906-4855-19866-8320-3993-3450-5989-7857-5989-13223 0-3513 1022-6835 3066-9965 2044-3146 5110-5605 9214-7394s9725-2683 16864-2683c8767 0 15442 1629 20041 4903 4599 3257 7330 8448 8208 15570l-19930 1181c-527-3114-1645-5382-3338-6787-1709-1421-4056-2124-7043-2124-2459 0-4328 527-5573 1565-1246 1038-1869 2315-1869 3817 0 1086 511 2060 1517 2938 974 910 3337 1741 7074 2523 9262 1996 15889 4024 19882 6069 4008 2044 6931 4567 8751 7601 1820 3019 2731 6404 2731 10157 0 4391-1213 8448-3641 12169-2443 3705-5829 6532-10204 8448-4359 1917-9853 2874-16496 2874-11658 0-19738-2252-24226-6739-4487-4487-7026-10188-7617-17103zm92784-74255h26942c11275 0 20498 9254 20498 20499v85227c0 11244-9254 20498-20498 20498h-26942v36748c0 4374-1750 8249-4624 11124-2875 2875-6749 4624-11124 4624H15748c-4374 0-8249-1750-11124-4624C1749 325834 0 321960 0 317585V15872c0-4374 1750-8249 4624-11124C7499 1873 11498 124 15748 124h159282c375-125 750-125 1125-125 1750 0 3500 750 4749 1875h250c250 125 375 250 625 500l81367 82367c1375 1375 2375 3250 2375 5374 0 625-125 1125-250 1750v62747zm-82116-78746V24247l58119 58869h-50870c-2000 0-3750-875-5125-2125-1250-1250-2124-3125-2124-5124z"/></svg>