<svg xmlns="http://www.w3.org/2000/svg" width="64" height="64" shape-rendering="geometricPrecision" text-rendering="geometricPrecision" image-rendering="optimizeQuality" fill-rule="evenodd" clip-rule="evenodd" viewBox="0 0 640 640"><path d="M319.858 0c13.725 58.749 29.516 105.686 47.08 140.529 17.563 34.831 44.421 72.615 80.445 113.34l15.497 17.268c47.079 52.406 70.548 104.954 70.548 157.348 0 58.005-20.953 107.753-62.871 149.234-42.072 41.469-92.257 62.28-150.7 62.28-58.3 0-108.331-20.811-150.402-62.28-41.918-41.48-62.883-91.23-62.883-149.234 0-52.394 23.469-104.942 70.56-157.348l15.496-17.268c36.012-40.725 62.883-78.509 80.446-113.34C290.637 105.686 306.287 58.749 319.858 0zM178.502 397.316c-1.075-11.894 7.7-22.418 19.595-23.492 11.905-1.087 22.43 7.689 23.504 19.594 2.693 28.772 8.988 55.277 21.024 78.143 11.634 22.11 28.902 41.091 53.882 55.725 10.312 6.036 13.76 19.3 7.725 29.599-6.047 10.311-19.311 13.772-29.61 7.724-32.552-19.063-55.1-43.878-70.348-72.863-14.859-28.24-22.56-60.19-25.772-94.43z"/></svg>